<svg xmlns="http://www.w3.org/2000/svg" height="48" viewBox="0 -960 960 960" width="48"><path d="M485.066-104Q337-104 231.5-201.5T112-442q-2-15 8.5-26.5t26.409-11.5Q161-480 172-471q11 9 14 24 12 115 96 192.5T484.24-177q127.064 0 215.912-90.127Q789-357.254 789-485q0-125-89.5-211.5T485-783q-71.714 0-134.357 33T245-662h73q15.45 0 26.225 10.5Q355-641 355-625.684q0 15.316-10.775 26T318-589H157q-15.025 0-25.512-10.5Q121-610 121-626v-160q0-15.025 10.482-25.513Q141.965-822 156.982-822 172-822 183-811.513q11 10.488 11 25.513v71q52-67 128.507-104Q399.013-856 485-856q78.087 0 146.544 29.5Q700-797 751-746.5t81 118.703q30 68.203 30 146T832-335q-30 69-81 120.5t-119.435 81Q563.13-104 485.066-104ZM512-497l114 112q11 11 11 26t-11 26q-11.289 11-25.644 11Q586-322 575-333L450-455q-6-5-8.5-11.848Q439-473.696 439-482v-173q0-15.025 10.482-25.513Q459.965-691 474.982-691 490-691 501-680.513q11 10.488 11 25.513v158Z"/></svg>