<svg xmlns="http://www.w3.org/2000/svg" height="48" viewBox="0 -960 960 960" width="48"><path d="M221-180h138v-220q0-15.2 10.612-26.1Q380.225-437 395-437h170q15.2 0 26.1 10.9Q602-415.2 602-400v220h137v-389L480-763 221-569.333V-180Zm-73 0v-389q0-17.258 7.797-32.699Q163.594-617.141 178-628l259-194q18.68-14 42.84-14Q504-836 524-822l259 194q13.406 10.859 21.203 26.301Q812-586.258 812-569v389q0 30.75-21.125 51.875T739-107H565q-14.775 0-25.388-10.625Q529-128.25 529-144v-220h-97v220q0 15.75-10.9 26.375T395-107H221q-30.75 0-51.875-21.125T148-180Zm332-292Z"/></svg>