<svg xmlns="http://www.w3.org/2000/svg" height="48" viewBox="0 -960 960 960" width="48"><path d="m439-441-76-76q-11.091-11-27.045-10.5Q320-527 310-517.211q-11 11.19-11 27.034T310-464l101 101q9.818 11 24.727 11T462-363l188-188q10-9.8 10-24.9 0-15.1-9.289-26.1-11.29-10-26.567-9.5Q608.867-611 599-601L439-441Zm41 373q-6.32 0-11.88-.75Q462.56-69.5 458-72q-145-47-229-174.742-84-127.741-84-276.364V-721q0-23.472 13.115-42.25Q171.231-782.027 193-791l262-98q12-4 25-4t26 4l262 98q20.788 8.513 33.894 27.432Q815-744.649 815-721v197.894q0 148.623-84 276.364Q647-119 503-72q-5.56 2-11.12 3T480-68Zm0-71q115-39 188.5-145.5T742-523.21V-721.1L480-820l-262 98.9v197.89Q218-391 291.5-284.5T480-139Zm0-341Z"/></svg>