<svg xmlns="http://www.w3.org/2000/svg" height="48" viewBox="0 -960 960 960" width="48"><path d="M483.958-236Q502-236 514.5-248.458q12.5-12.457 12.5-30.5Q527-297 514.542-309.5q-12.457-12.5-30.5-12.5Q466-322 453.5-309.542q-12.5 12.457-12.5 30.5Q441-261 453.458-248.5q12.457 12.5 30.5 12.5Zm-4.15 172q-85.916 0-161.522-33.02T186.36-186.36q-56.32-56.32-89.34-132.132Q64-394.303 64-480.5q0-86.09 33.079-161.809 33.079-75.718 89.686-132.31 56.606-56.592 132.056-88.986Q394.271-896 480.057-896q86.148 0 162.172 32.395 76.023 32.394 132.397 89Q831-718 863.5-641.958 896-565.917 896-479.724q0 86.192-32.395 161.297-32.394 75.104-88.986 131.502-56.592 56.399-132.616 89.662Q565.979-64 479.808-64Zm.692-73q142.013 0 242.256-100.744Q823-338.487 823-480.5T722.944-722.756Q622.888-823 480-823q-141.513 0-242.256 100.056Q137-622.888 137-480q0 141.513 100.744 242.256Q338.487-137 480.5-137Zm-.5-343Zm2.737-182q28.801 0 52.032 17.5Q558-627 558-598.826q0 25.826-15.648 45.255Q526.705-534.143 507-518q-24 20-43 44.385-19 24.384-19 54.615 0 12.667 9.8 21.333Q464.6-389 479-389q13.583 0 23.667-9.5 10.083-9.5 13.476-24.833Q519-444 532.636-462.031q13.637-18.031 30.595-31.753Q588-515 604.5-543.071q16.5-28.072 16.5-59.543Q621-656 580.5-690.5 540-725 485.832-725q-37.425 0-72.128 16Q379-693 356.16-663.2 348-652 348.5-638.5t10.789 21.433Q372.385-608 387.615-612q15.231-4 25.385-16 11.75-16.903 30.375-25.452Q462-662 482.737-662Z"/></svg>